<svg xmlns="http://www.w3.org/2000/svg" width="24" height="24" viewBox="0 0 24 24">
  <g id="Group_43210" data-name="Group 43210" transform="translate(-377 -40)">
    <rect id="Boundary" width="24" height="24" transform="translate(377 40)" fill="none"/>
    <path id="_Color" data-name=" ↳Color" d="M8,19.5a2,2,0,0,1-2-2h4A2,2,0,0,1,8,19.5Zm8-3H0v-1l2-2v-5A7.1,7.1,0,0,1,3.174,4.44,5.522,5.522,0,0,1,6.5,2.18V1.5a1.5,1.5,0,0,1,3,0v.68a5.529,5.529,0,0,1,3.322,2.264A7.085,7.085,0,0,1,14,8.5v5l2,2v1Z" transform="translate(381 42)" fill="#387c56"/>
  </g>
</svg>
