<svg xmlns="http://www.w3.org/2000/svg" width="38.463" height="36.242" viewBox="0 0 38.463 36.242">
  <g id="noun-ancient-ruins-2087414" transform="translate(-99.98 -44.418)">
    <path id="Path_70949" data-name="Path 70949" d="M465.414,164.646l.914-.306a.5.5,0,0,0,.342-.433l.047-.5a.505.505,0,0,0-.288-.5l-.011-.005h0a.51.51,0,0,1-.266-.3l-.176-.543a.5.5,0,0,0-.841-.2l-.957.968a.5.5,0,0,0-.118.522l.273.776a.855.855,0,0,0,1.079.527Z" transform="translate(-336.052 -108.261)" fill="#37915d"/>
    <path id="Path_70950" data-name="Path 70950" d="M430,220.925a1.217,1.217,0,0,0-.437.935v9.775a1.072,1.072,0,0,0,1.072,1.073h6.937a1.072,1.072,0,0,0,1.072-1.073v-10.53a1.219,1.219,0,0,0-.673-1.089l-.47-.235a2.454,2.454,0,0,1-.5-.328l-.6-.509a1.229,1.229,0,0,1-.327-.443l-.048-.11a1.217,1.217,0,0,0-1.118-.734h-.951a1.218,1.218,0,0,0-1.063.623l-.136.242a1.222,1.222,0,0,1-.284.342,1.014,1.014,0,0,0-.367.781v10.37a.589.589,0,0,1-.514.589.571.571,0,0,1-.627-.568v-9.123a.372.372,0,0,0-.61-.286Zm6.1.984a.57.57,0,1,1,1.141,0v8.128h0a.57.57,0,1,1-1.141,0Zm-2.542-1.178a.589.589,0,0,1,.519-.6.57.57,0,0,1,.622.568v9.338a.571.571,0,0,1-.627.568.589.589,0,0,1-.514-.589Z" transform="translate(-304.233 -159.914)" fill="#37915d"/>
    <path id="Path_70951" data-name="Path 70951" d="M184.07,101.3a1.39,1.39,0,0,0-.022.245v12.489a1.072,1.072,0,0,0,1.071,1.073h6.937a1.073,1.073,0,0,0,1.072-1.073V100.679a.263.263,0,0,0-.344-.252l-.211.07h0a.86.86,0,0,0-.555.571l-.154.5a3.146,3.146,0,0,0-.138.925v9.927a.589.589,0,0,1-.514.589.57.57,0,0,1-.626-.568v-7.424a.518.518,0,0,0-.757-.462,1.187,1.187,0,0,0-.648,1.057v6.8a.589.589,0,0,1-.515.589.572.572,0,0,1-.626-.568V93.206a.589.589,0,0,1,.514-.589.571.571,0,0,1,.627.568v9.86a.354.354,0,0,0,.61.246l.16-.168a1.644,1.644,0,0,0,.41-.737l.221-.867V93.207a.589.589,0,0,1,.514-.589.571.571,0,0,1,.626.568v4.635a.637.637,0,0,0,.969.548.9.9,0,0,0,.439-.772v-6.52a.817.817,0,0,0-.817-.817h-7.446a.817.817,0,0,0-.817.817v5.8h0a1.373,1.373,0,0,0,.252.8,1.377,1.377,0,0,1,.234,1.045Zm1.386-8.123a.57.57,0,1,1,1.141,0V112.44a.57.57,0,1,1-1.141,0Z" transform="translate(-77.603 -42.315)" fill="#37915d"/>
    <path id="Path_70952" data-name="Path 70952" d="M121.995,48.12a3.516,3.516,0,0,0-3.7-3.7H103.682a3.518,3.518,0,0,0-3.7,3.7,2.194,2.194,0,0,0,.011.269,2.708,2.708,0,0,0,2.451,2.468,2.444,2.444,0,0,0,2.23-1.173,1.987,1.987,0,0,0,.162-.39,1.212,1.212,0,0,0-1.346-1.524,1.113,1.113,0,0,0-.794.628,1.136,1.136,0,0,1-.047-1.026h0a1.051,1.051,0,0,1,.95-.565h14.779a1.05,1.05,0,0,1,.95.57,1.13,1.13,0,0,1-.047,1.026,1.113,1.113,0,0,0-.794-.628,1.214,1.214,0,0,0-1.346,1.524h0a1.968,1.968,0,0,0,.161.39,2.444,2.444,0,0,0,2.23,1.173,2.707,2.707,0,0,0,2.456-2.472c.005-.087.008-.177.008-.269Z" transform="translate(0 0)" fill="#37915d"/>
    <path id="Path_70953" data-name="Path 70953" d="M157.288,428.18a1.245,1.245,0,0,0-1.245,1.245v.5a.706.706,0,0,0,.706.706h11.976a.707.707,0,0,0,.707-.706v-.5a1.246,1.246,0,0,0-1.247-1.245Z" transform="translate(-51.751 -354.245)" fill="#37915d"/>
    <path id="Path_70954" data-name="Path 70954" d="M148.014,475a1.234,1.234,0,0,0-.5-.106H132.855a1.246,1.246,0,0,0-1.245,1.246v1.255a.631.631,0,0,0,.631.632h15.884a.631.631,0,0,0,.631-.632v-1.255a1.245,1.245,0,0,0-.743-1.14Z" transform="translate(-29.197 -397.363)" fill="#37915d"/>
    <path id="Path_70955" data-name="Path 70955" d="M402.788,428.18a1.255,1.255,0,0,0-1.245,1.245v.5a.707.707,0,0,0,.707.706h11.976a.706.706,0,0,0,.706-.706v-.5a1.253,1.253,0,0,0-1.245-1.245Z" transform="translate(-278.368 -354.245)" fill="#37915d"/>
    <path id="Path_70956" data-name="Path 70956" d="M393.523,475a1.232,1.232,0,0,0-.5-.106H378.365a1.246,1.246,0,0,0-1.245,1.246v1.255a.631.631,0,0,0,.631.632h15.884a.631.631,0,0,0,.632-.632v-1.255a1.244,1.244,0,0,0-.744-1.14Z" transform="translate(-255.824 -397.363)" fill="#37915d"/>
    <path id="Path_70957" data-name="Path 70957" d="M513.386,151.579a.849.849,0,0,0-.908.373l-.937,1.478h0a.877.877,0,0,0-.1.215l-.241.817a.85.85,0,0,0,.2.824,1.855,1.855,0,0,1,.341.5,1.932,1.932,0,0,0,.193.336,1.418,1.418,0,0,0,.129.157c.028.029.058.059.091.089a1.97,1.97,0,0,0,.795.478,2.172,2.172,0,0,1,.656.356.849.849,0,0,0,1.336-.876l-.364-1.529a.87.87,0,0,1-.023-.228l.052-1.395h0a1.577,1.577,0,0,0-1.222-1.6Z" transform="translate(-379.562 -98.899)" fill="#37915d"/>
  </g>
</svg>
