<svg xmlns="http://www.w3.org/2000/svg" width="19.679" height="18.181" viewBox="0 0 19.679 18.181">
  <g id="comment-svgrepo-com" transform="translate(0.5 0.5)">
    <path id="Path_9784" data-name="Path 9784" d="M13.207,17.943c3.522,0,5.283,0,6.377-1.094s1.094-2.855,1.094-6.377,0-5.283-1.094-6.377S16.73,3,13.207,3H9.472C5.949,3,4.188,3,3.094,4.094S2,6.949,2,10.472s0,5.283,1.094,6.377a4.039,4.039,0,0,0,2.642,1" transform="translate(-2 -3)" fill="none" stroke="#000" stroke-linecap="round" stroke-linejoin="round" stroke-width="1"/>
    <path id="Path_9785" data-name="Path 9785" d="M13.492,18.9A8.207,8.207,0,0,0,9.9,19.97c-1.865.969-2.8,1.453-3.258,1.144s-.373-1.266-.2-3.18l.04-.435" transform="translate(-2.285 -3.958)" fill="none" stroke="#000" stroke-linecap="round" stroke-width="1"/>
  </g>
</svg>
