<svg xmlns="http://www.w3.org/2000/svg" width="34.565" height="41" viewBox="0 0 34.565 41">
  <g id="noun-flying-around-world-3359802" transform="translate(-163.333 -56.52)">
    <path id="Path_70929" data-name="Path 70929" d="M166.731,253.969a15.736,15.736,0,0,1,1.214-6.078l-.515-.515-2.244-1.709c-.669,1.426-3.515,8.2-.484,14.173,1.678,3.315,4.833,5.821,9.413,7.509a15.846,15.846,0,0,1-7.385-13.381Z" transform="translate(0 -171.765)" fill="#37915d"/>
    <path id="Path_70930" data-name="Path 70930" d="M272.888,217c-1.312,1.076-2.573,2.058-3.7,2.949.772.232,1.59.432,2.429.6A20.193,20.193,0,0,1,272.888,217Z" transform="translate(-96.132 -145.731)" fill="#37915d"/>
    <path id="Path_70931" data-name="Path 70931" d="M451.14,345.43a25.217,25.217,0,0,1,5.424,1.713.092.092,0,0,1,.036.026,15.249,15.249,0,0,0,2.656-8.368H451.9a29.811,29.811,0,0,1-.762,6.629Z" transform="translate(-261.358 -256.339)" fill="#37915d"/>
    <path id="Path_70932" data-name="Path 70932" d="M398.78,424.111a15.329,15.329,0,0,0,9.974-6.093,24.583,24.583,0,0,0-5.285-1.662c-.937,3.705-2.635,6.51-4.688,7.756Z" transform="translate(-213.81 -326.766)" fill="#37915d"/>
    <path id="Path_70933" data-name="Path 70933" d="M451.9,250.513h7.354a15.25,15.25,0,0,0-2.656-8.368.1.1,0,0,1-.036,0,25.236,25.236,0,0,1-5.424,1.714,29.8,29.8,0,0,1,.762,6.654Z" transform="translate(-261.359 -168.566)" fill="#37915d"/>
    <path id="Path_70934" data-name="Path 70934" d="M412.05,176.49c.159.159.319.33.474.515h0a1.153,1.153,0,0,1,1.277.283,1.262,1.262,0,0,1,.375.767,1.087,1.087,0,0,1-.329.875,18.843,18.843,0,0,1,1.672,4.349,24.535,24.535,0,0,0,5.29-1.662,15.314,15.314,0,0,0-8.1-5.661Z" transform="translate(-225.86 -108.459)" fill="#37915d"/>
    <path id="Path_70935" data-name="Path 70935" d="M209.718,258.068a.263.263,0,0,1-.206.1.273.273,0,0,1-.2-.1l-1.92-2.522-.34-.314a15.238,15.238,0,0,0-1.086,5.4h7.354a29.472,29.472,0,0,1,.762-6.629,28.461,28.461,0,0,1-2.8-.715l-.829.622.35,2.6a.262.262,0,0,1-.052.2Z" transform="translate(-38.715 -178.688)" fill="#37915d"/>
    <path id="Path_70936" data-name="Path 70936" d="M208.621,347.173l.036-.026a25.261,25.261,0,0,1,5.43-1.713,29.472,29.472,0,0,1-.762-6.629h-7.354a15.243,15.243,0,0,0,2.65,8.368Z" transform="translate(-38.719 -256.343)" fill="#37915d"/>
    <path id="Path_70937" data-name="Path 70937" d="M243.291,416.36a24.71,24.71,0,0,0-5.3,1.662,15.328,15.328,0,0,0,9.979,6.093c-2.048-1.246-3.721-4.05-4.683-7.756Z" transform="translate(-67.801 -326.771)" fill="#37915d"/>
    <path id="Path_70938" data-name="Path 70938" d="M381.793,409.384a34.864,34.864,0,0,0-6.309-.587v8.625c2.733-.19,5.09-3.391,6.309-8.039Z" transform="translate(-192.655 -319.903)" fill="#37915d"/>
    <path id="Path_70939" data-name="Path 70939" d="M303.037,181.37a17.974,17.974,0,0,0-1.817,4.539,34.943,34.943,0,0,0,6.309.607v-5.563l-1.415-2.2c-1.014.9-2.053,1.781-3.078,2.614Z" transform="translate(-125.215 -111.002)" fill="#37915d"/>
    <path id="Path_70940" data-name="Path 70940" d="M375.48,216.061c1.029,0,2.007-.051,2.99-.139l-2.99-4.632Z" transform="translate(-192.651 -140.547)" fill="#37915d"/>
    <path id="Path_70941" data-name="Path 70941" d="M419.95,216.47c.751-.088,1.5-.2,2.223-.335a18.7,18.7,0,0,0-1.575-4.117l-.515.448.762,2.239a.264.264,0,0,1,0,.206Z" transform="translate(-233.034 -141.208)" fill="#37915d"/>
    <path id="Path_70942" data-name="Path 70942" d="M411.77,190.155v-.031l-.057-.062Z" transform="translate(-225.554 -121.269)" fill="#37915d"/>
    <path id="Path_70943" data-name="Path 70943" d="M375.431,344.719a35.65,35.65,0,0,1,6.407.6,29.226,29.226,0,0,0,.793-6.515h-7.2Z" transform="translate(-192.602 -256.339)" fill="#37915d"/>
    <path id="Path_70944" data-name="Path 70944" d="M382.37,262.25c-.859.165-1.745.288-2.64.386v.052a.274.274,0,0,1-.216.134.283.283,0,0,1-.226-.118c-1.086.1-2.187.154-3.3.165v5.9h7.2a29.223,29.223,0,0,0-.818-6.521Z" transform="translate(-193.108 -186.823)" fill="#37915d"/>
    <path id="Path_70945" data-name="Path 70945" d="M307.533,417.43V408.8a34.94,34.94,0,0,0-6.309.6C302.449,414.039,304.806,417.24,307.533,417.43Z" transform="translate(-125.219 -319.91)" fill="#37915d"/>
    <path id="Path_70946" data-name="Path 70946" d="M292.356,262.2a28.941,28.941,0,0,0-.761,6.521h7.2V262.8a35.672,35.672,0,0,1-6.418-.607Z" transform="translate(-116.475 -186.774)" fill="#37915d"/>
    <path id="Path_70947" data-name="Path 70947" d="M292.254,345.318a35.547,35.547,0,0,1,6.433-.6V338.8h-7.2a28.947,28.947,0,0,0,.772,6.521Z" transform="translate(-116.372 -256.336)" fill="#37915d"/>
    <path id="Path_70948" data-name="Path 70948" d="M208.893,73.559l-.782-2.3h0a.253.253,0,0,1,.077-.278l1.081-.9a.515.515,0,0,0,.159-.443.71.71,0,0,0-.226-.453.618.618,0,0,0-.911-.046l-.35.422a.261.261,0,0,1-.247.087.252.252,0,0,1-.2-.17L207.06,68.2h0a.258.258,0,0,1,.077-.278l1.317-1.086a.684.684,0,0,0-.978-.942l-.561.674a.272.272,0,0,1-.242.093.252.252,0,0,1-.2-.17l-.762-2.229a.263.263,0,0,1,.062-.262c3.345-3.371,4.143-6.093,3.2-7.035s-3.664-.144-7.035,3.2a.262.262,0,0,1-.262.062l-2.223-.762a.236.236,0,0,1-.17-.2.241.241,0,0,1,.087-.242l.68-.577a.556.556,0,0,0,.144-.546.823.823,0,0,0-.561-.556.546.546,0,0,0-.556.16l-1.076,1.3h0a.247.247,0,0,1-.278.077l-1.277-.437a.259.259,0,0,1-.082-.443l.438-.365a.677.677,0,0,0-.973-.937l-.87,1.06a.252.252,0,0,1-.278.077l-2.3-.782-1.683.926,8.023,5.183a.26.26,0,0,1,.113.185.252.252,0,0,1-.062.206c-2.969,3.335-5.851,6.984-7.72,9.459a.257.257,0,0,1-.242.1l-2.64-.355-1.029.777,2.254,1.719,1.287,1.292,1.74,2.28.777-1.029-.355-2.645a.261.261,0,0,1,.1-.237c2.476-1.894,6.129-4.776,9.464-7.72h0a.263.263,0,0,1,.206-.062.252.252,0,0,1,.18.118l5.146,8.018Z" transform="translate(-21.628)" fill="#37915d"/>
  </g>
</svg>
