<svg xmlns="http://www.w3.org/2000/svg" width="28.82" height="28.821" viewBox="0 0 28.82 28.821">
  <g id="Group_47229" data-name="Group 47229" transform="translate(17956 -1613)">
    <path id="Path_70894" data-name="Path 70894" d="M0,0H28.821V28.821H0Z" transform="translate(-17956 1613)" fill="none"/>
    <g id="noun-navigation-2738997" transform="translate(-17953.902 1615.578)">
      <path id="Path_70903" data-name="Path 70903" d="M234.56,85.68a10,10,0,1,0,10,10A9.983,9.983,0,0,0,234.56,85.68Zm-7.991,10.491h-1.161a.491.491,0,1,1,0-.982h1.161a.491.491,0,0,1,0,.982Zm7.544-9.643a.491.491,0,1,1,.982,0v1.161a.491.491,0,1,1-.982,0Zm.938,18.348a.491.491,0,1,1-.982,0v-1.161a.491.491,0,0,1,.982,0ZM239.694,90.9l-2.322,4.063a3.472,3.472,0,0,1,.089.714,2.9,2.9,0,0,1-2.9,2.9,3.918,3.918,0,0,1-.759-.089l-4.063,2.277c-.357.223-.491.089-.313-.313l2.321-4.107a3.46,3.46,0,0,1-.089-.67,2.9,2.9,0,0,1,2.9-2.9,4.378,4.378,0,0,1,.759.089l4.107-2.322c.358-.134.491,0,.268.357Zm4.018,5.268h-1.205a.491.491,0,1,1,0-.982h1.205a.491.491,0,0,1,0,.982Z" transform="translate(-222.247 -83.847)" fill="#777"/>
      <path id="Path_70904" data-name="Path 70904" d="M335.352,195.116A1.355,1.355,0,1,1,334,193.761a1.355,1.355,0,0,1,1.355,1.355" transform="translate(-321.701 -183.283)" fill="#777"/>
    </g>
  </g>
</svg>
