<svg xmlns="http://www.w3.org/2000/svg" width="42.423" height="20" viewBox="0 0 42.423 20">
  <g id="Group_47218" data-name="Group 47218" transform="translate(0 4)">
    <text id="_4.9" data-name="4.9" transform="translate(0 11)" fill="#2e2e2e" font-size="14" font-family="Poppins-Regular, Poppins"><tspan x="0" y="0">4.9</tspan></text>
    <g id="Group_1197" data-name="Group 1197" transform="translate(25.423 -3)">
      <path id="Icon_awesome-star" data-name="Icon awesome-star" d="M9.029.59l-2.075,4.4-4.642.707A1.076,1.076,0,0,0,1.75,7.506l3.359,3.419-.794,4.83a1.026,1.026,0,0,0,1.474,1.119l4.153-2.281,4.153,2.281a1.027,1.027,0,0,0,1.474-1.119l-.794-4.83,3.359-3.419a1.076,1.076,0,0,0-.562-1.813l-4.642-.707L10.853.59a1,1,0,0,0-1.824,0Z" transform="translate(-1.441 0.001)" fill="#37915d"/>
    </g>
  </g>
</svg>
