<svg xmlns="http://www.w3.org/2000/svg" width="38.078" height="38.069" viewBox="0 0 38.078 38.069">
  <g id="noun-mosque-2382544" transform="translate(-86 -16.06)">
    <path id="Path_70922" data-name="Path 70922" d="M526.146,62.937a.569.569,0,0,0-.49-.277.586.586,0,0,0-.5.277,12.623,12.623,0,0,0-1.812,5.909h4.617a12.572,12.572,0,0,0-1.818-5.909Z" transform="translate(-405.807 -43.239)" fill="#37915d"/>
    <path id="Path_70923" data-name="Path 70923" d="M115.437,63.159a.6.6,0,0,0-.987,0,12.635,12.635,0,0,0-1.818,5.909h4.623A12.639,12.639,0,0,0,115.437,63.159Z" transform="translate(-24.712 -43.461)" fill="#37915d"/>
    <path id="Path_70924" data-name="Path 70924" d="M400.095,61.547h3.649a5.868,5.868,0,0,0,.732-6.612,7.967,7.967,0,0,0-2.464-2.85l-4.035-2.955c1.9,3.039,4.049,7.923,2.118,12.416Z" transform="translate(-289.478 -30.686)" fill="#37915d"/>
    <path id="Path_70925" data-name="Path 70925" d="M279.145,30.862h8.593c3.31-6.592-3.795-14.532-3.873-14.62a.592.592,0,0,0-.854,0C282.934,16.331,275.834,24.269,279.145,30.862Z" transform="translate(-178.4)" fill="#37915d"/>
    <path id="Path_70926" data-name="Path 70926" d="M207.353,61.593c-1.933-4.494.217-9.377,2.109-12.413l-4.027,2.951a8.074,8.074,0,0,0-2.469,2.85,5.864,5.864,0,0,0,.735,6.612Z" transform="translate(-107.884 -30.731)" fill="#37915d"/>
    <path id="Path_70927" data-name="Path 70927" d="M123.5,173.5H122.18V164.44h-4.662V173.5H115.9v-3.231a.579.579,0,0,0-.577-.577H94.764a.579.579,0,0,0-.577.577V173.5H92.565V164.44H87.9V173.5H86.577a.579.579,0,0,0-.577.577v3.149h38.078V174.08a.575.575,0,0,0-.577-.577Z" transform="translate(0 -137.679)" fill="#37915d"/>
    <path id="Path_70928" data-name="Path 70928" d="M86,370.61a.579.579,0,0,0,.577.577h8.094v-4.933a4.262,4.262,0,1,1,8.458,0v4.933h3.825v-4.933a4.262,4.262,0,1,1,8.458,0v4.933H123.5a.575.575,0,0,0,.577-.577V357.76H86Z" transform="translate(0 -317.057)" fill="#37915d"/>
  </g>
</svg>
