<svg id="noun-park-2025884" xmlns="http://www.w3.org/2000/svg" width="42.351" height="38.5" viewBox="0 0 42.351 38.5">
  <path id="Path_70919" data-name="Path 70919" d="M158.183,326.67H141.072a1.149,1.149,0,0,0-1.07,1.07v4.278a1.07,1.07,0,0,0,1.07,1.07h17.111a1.149,1.149,0,0,0,1.07-1.07V327.74A1.07,1.07,0,0,0,158.183,326.67Z" transform="translate(-119.04 -303.142)" fill="#37915d"/>
  <path id="Path_70920" data-name="Path 70920" d="M329.536,80.186a5.34,5.34,0,0,1,5.162-8.013,6.409,6.409,0,0,1,11.216,4.246,5.7,5.7,0,0,1-.049.729A7.468,7.468,0,0,1,342.7,91.392a7.171,7.171,0,0,1-2.139-.363v16.4a1.069,1.069,0,0,1-1.069,1.07h-2.139a1.068,1.068,0,0,1-1.069-1.07V93.178a7.444,7.444,0,0,1-6.752-12.992Z" transform="translate(-326.663 -70.003)" fill="#37915d"/>
  <path id="Path_70921" data-name="Path 70921" d="M117.735,420h21.389a1.069,1.069,0,0,1,1.069,1.07v4.278h0a1.069,1.069,0,1,1-2.139,0v-1.069H118.8v1.07h0a1.069,1.069,0,1,1-2.139,0V421.07a1.069,1.069,0,0,1,1.069-1.07Z" transform="translate(-97.842 -387.917)" fill="#37915d"/>
</svg>
