<svg xmlns="http://www.w3.org/2000/svg" width="19" height="21" viewBox="0 0 19 21">
  <g id="Icon_feather-share-2" data-name="Icon feather-share-2" transform="translate(0.5 0.5)">
    <path id="Path_9786" data-name="Path 9786" d="M28.5,6a3,3,0,1,1-3-3A3,3,0,0,1,28.5,6Z" transform="translate(-10.5 -3)" fill="none" stroke="#000" stroke-linecap="round" stroke-linejoin="round" stroke-width="1"/>
    <path id="Path_9787" data-name="Path 9787" d="M10.5,16.5a3,3,0,1,1-3-3A3,3,0,0,1,10.5,16.5Z" transform="translate(-4.5 -6.5)" fill="none" stroke="#000" stroke-linecap="round" stroke-linejoin="round" stroke-width="1"/>
    <path id="Path_9788" data-name="Path 9788" d="M28.5,27a3,3,0,1,1-3-3A3,3,0,0,1,28.5,27Z" transform="translate(-10.5 -10)" fill="none" stroke="#000" stroke-linecap="round" stroke-linejoin="round" stroke-width="1"/>
    <path id="Path_9789" data-name="Path 9789" d="M12.885,20.265l6.83,3.98" transform="translate(-7.295 -8.755)" fill="none" stroke="#000" stroke-linecap="round" stroke-linejoin="round" stroke-width="1"/>
    <path id="Path_9790" data-name="Path 9790" d="M19.7,9.765l-6.82,3.98" transform="translate(-7.295 -5.255)" fill="none" stroke="#000" stroke-linecap="round" stroke-linejoin="round" stroke-width="1"/>
  </g>
</svg>
