<svg xmlns="http://www.w3.org/2000/svg" width="16" height="16" viewBox="0 0 16 16">
  <g id="light_mode_black_24dp" transform="translate(0.21 0.21)">
    <rect id="Rectangle_16502" data-name="Rectangle 16502" width="16" height="16" transform="translate(-0.21 -0.21)" fill="none"/>
    <path id="Path_70966" data-name="Path 70966" d="M8.14,4.895A3.246,3.246,0,1,0,11.386,8.14,3.247,3.247,0,0,0,8.14,4.895ZM1.649,8.79h1.3a.649.649,0,0,0,0-1.3h-1.3a.649.649,0,0,0,0,1.3Zm11.684,0h1.3a.649.649,0,0,0,0-1.3h-1.3a.649.649,0,0,0,0,1.3ZM7.491,1.649v1.3a.649.649,0,0,0,1.3,0v-1.3a.649.649,0,0,0-1.3,0Zm0,11.684v1.3a.649.649,0,0,0,1.3,0v-1.3a.649.649,0,0,0-1.3,0ZM4.239,3.324a.647.647,0,0,0-.915.915l.688.688a.647.647,0,0,0,.915-.915Zm8.03,8.03a.647.647,0,0,0-.915.915l.688.688a.647.647,0,0,0,.915-.915Zm.688-7.114a.647.647,0,1,0-.915-.915l-.688.688a.647.647,0,0,0,.915.915Zm-8.03,8.03a.647.647,0,0,0-.915-.915l-.688.688a.647.647,0,0,0,.915.915Z" transform="translate(-0.351 -0.351)" fill="#37915d"/>
  </g>
</svg>
